<?xml version="1.0" encoding="UTF-8"?>
<svg xmlns="http://www.w3.org/2000/svg" xmlns:xlink="http://www.w3.org/1999/xlink" width="150px" height="100px" viewBox="0 0 150 100" version="1.1">
<g id="surface1">
<path style=" stroke:none;fill-rule:nonzero;fill:rgb(0%,0%,0%);fill-opacity:1;" d="M 31.273438 8.144531 C 26.25 8.488281 21.746094 11.09375 17.886719 15.878906 C 16.894531 17.109375 15.621094 19.070312 14.855469 20.527344 L 14.59375 21.027344 L 10.980469 21.027344 C 7.453125 21.027344 7.367188 21.035156 7.171875 21.164062 C 6.742188 21.453125 6.515625 21.863281 6.390625 22.566406 C 6.257812 23.332031 6.539062 24.230469 7.046875 24.648438 L 7.28125 24.835938 L 12.882812 24.875 L 12.511719 25.96875 C 12.070312 27.257812 11.816406 28.113281 11.46875 29.492188 C 11.324219 30.046875 11.136719 30.722656 11.046875 30.988281 C 10.6875 32.050781 10.339844 33.574219 10.144531 34.894531 C 9.96875 36.101562 9.910156 37.019531 9.910156 38.410156 C 9.914062 39.863281 9.953125 40.535156 10.113281 41.828125 C 10.175781 42.292969 10.242188 43.054688 10.273438 43.523438 C 10.488281 47.257812 11.222656 51.113281 12.375 54.589844 C 15.699219 64.617188 22.34375 71.503906 29.777344 72.625 C 30.140625 72.675781 30.570312 72.734375 30.738281 72.761719 L 31.035156 72.800781 L 31.035156 79.949219 C 31.035156 86.980469 31.035156 87.109375 31.125 87.460938 C 31.371094 88.429688 32.195312 88.886719 32.832031 88.40625 C 33.097656 88.203125 32.765625 88.789062 37.898438 79.492188 C 40.21875 75.285156 42.488281 71.183594 42.945312 70.378906 C 43.398438 69.570312 44.023438 68.457031 44.328125 67.902344 C 44.636719 67.351562 44.964844 66.804688 45.058594 66.699219 C 45.152344 66.589844 45.402344 66.300781 45.625 66.054688 C 46.695312 64.84375 48.175781 62.761719 49.003906 61.296875 C 51.417969 57.023438 53.042969 52.023438 53.753906 46.679688 C 53.804688 46.269531 53.921875 45.695312 54.003906 45.410156 C 54.4375 43.914062 54.734375 42.304688 54.878906 40.675781 C 55.007812 39.160156 54.957031 36.84375 54.761719 35.351562 C 54.417969 32.722656 53.640625 30.117188 52.609375 28.117188 C 52.480469 27.871094 52.195312 27.109375 51.9375 26.335938 C 51.695312 25.59375 51.492188 24.972656 51.492188 24.960938 C 51.492188 24.949219 52.859375 24.929688 54.535156 24.921875 C 57.457031 24.902344 57.585938 24.894531 57.753906 24.773438 C 58.332031 24.355469 58.609375 23.371094 58.425781 22.429688 C 58.363281 22.128906 58.296875 21.972656 58.097656 21.679688 C 57.667969 21.054688 57.972656 21.09375 53.59375 21.09375 L 49.78125 21.09375 L 49.492188 20.554688 C 48.671875 19.015625 47.46875 17.179688 46.453125 15.898438 C 44.300781 13.183594 41.714844 11.035156 39.035156 9.738281 C 37.222656 8.855469 35.210938 8.300781 33.359375 8.171875 C 32.246094 8.09375 32.011719 8.09375 31.273438 8.144531 Z M 33.71875 11.847656 C 36.242188 12.148438 38.550781 13.105469 40.910156 14.835938 C 42.730469 16.171875 44.28125 17.8125 45.816406 20.019531 L 46.496094 20.996094 L 43.976562 21.027344 C 41.761719 21.054688 41.445312 21.074219 41.308594 21.171875 C 41.222656 21.230469 40.945312 21.339844 40.6875 21.417969 C 39 21.941406 37.265625 23.085938 35.972656 24.539062 C 34.574219 26.105469 33.390625 28.113281 32.640625 30.195312 L 32.445312 30.734375 L 32.179688 30.03125 C 30.769531 26.308594 28.515625 23.46875 25.839844 22.039062 C 25.292969 21.75 24.5625 21.445312 23.953125 21.257812 C 23.792969 21.203125 23.554688 21.121094 23.421875 21.0625 C 23.203125 20.964844 22.875 20.957031 20.511719 20.976562 C 18.121094 20.996094 17.851562 20.988281 17.886719 20.898438 C 17.941406 20.753906 18.945312 19.324219 19.414062 18.722656 C 21.273438 16.347656 23.703125 14.328125 26.121094 13.171875 C 27.488281 12.511719 29.203125 12.003906 30.566406 11.855469 C 31.242188 11.777344 33.078125 11.777344 33.71875 11.847656 Z M 22.933594 25.007812 C 25.226562 25.421875 27.480469 27.257812 28.84375 29.816406 C 29.410156 30.886719 29.699219 31.535156 30.019531 32.5 C 31.632812 37.355469 31.171875 43.015625 28.828125 47.148438 C 27.746094 49.050781 26.246094 50.558594 24.703125 51.300781 C 22.09375 52.558594 19.390625 52.136719 17.070312 50.089844 C 16.40625 49.503906 15.925781 48.945312 15.3125 48.046875 C 14.726562 47.1875 14.398438 46.59375 14.027344 45.730469 C 13.152344 43.679688 12.648438 41.417969 12.65625 39.582031 C 12.664062 38.117188 12.804688 36.359375 13.0625 34.539062 C 13.21875 33.398438 13.382812 32.765625 13.765625 31.785156 C 14.847656 29.003906 16.554688 26.867188 18.578125 25.761719 C 19.980469 24.992188 21.445312 24.738281 22.933594 25.007812 Z M 44.25 25.070312 C 46.421875 25.441406 48.5625 27.148438 50.023438 29.65625 C 50.382812 30.265625 50.421875 30.359375 50.570312 30.996094 C 51.09375 33.203125 51.410156 35.332031 51.589844 37.726562 C 51.664062 38.761719 51.664062 42.3125 51.589844 43.261719 C 51.535156 43.894531 51.503906 44.050781 51.332031 44.5625 C 50.296875 47.589844 48.617188 49.863281 46.480469 51.132812 C 45.96875 51.433594 45.261719 51.726562 44.628906 51.902344 C 44.199219 52.023438 43.960938 52.042969 43.101562 52.042969 C 42.226562 52.042969 42.003906 52.023438 41.539062 51.902344 C 40.558594 51.632812 39.734375 51.230469 38.902344 50.613281 C 36.5625 48.875 34.757812 45.566406 34.140625 41.863281 C 33.941406 40.652344 33.871094 39.792969 33.863281 38.488281 C 33.859375 36.320312 34.144531 34.503906 34.800781 32.570312 C 35.984375 29.054688 38.09375 26.484375 40.625 25.460938 C 41.847656 24.96875 42.957031 24.851562 44.25 25.070312 Z M 33.09375 48.015625 C 33.238281 48.332031 33.472656 48.828125 33.613281 49.101562 L 33.875 49.609375 L 33.722656 49.796875 C 33.53125 50.050781 33.441406 50.3125 32.890625 52.167969 L 32.433594 53.722656 L 32.332031 53.40625 C 32.214844 53.035156 32.078125 52.585938 31.699219 51.300781 C 31.386719 50.242188 31.308594 50.050781 31.09375 49.773438 L 30.941406 49.570312 L 31.09375 49.316406 C 31.339844 48.894531 31.894531 47.667969 32.164062 46.953125 L 32.421875 46.277344 L 32.628906 46.855469 C 32.742188 47.167969 32.953125 47.6875 33.09375 48.015625 Z M 14.765625 52.570312 C 16.339844 54.34375 18.457031 55.539062 20.585938 55.867188 C 21.816406 56.054688 23.558594 55.878906 24.585938 55.460938 C 26.269531 54.777344 27.632812 53.855469 28.734375 52.644531 C 28.910156 52.449219 29.066406 52.292969 29.070312 52.296875 C 29.074219 52.304688 29.394531 53.367188 29.773438 54.65625 C 30.160156 55.945312 30.527344 57.175781 30.59375 57.390625 C 30.660156 57.605469 30.839844 58.203125 30.996094 58.722656 C 31.308594 59.777344 31.488281 60.125 31.855469 60.402344 C 32.300781 60.742188 32.957031 60.597656 33.328125 60.070312 C 33.539062 59.777344 33.636719 59.511719 34.058594 58.074219 C 34.417969 56.863281 35.015625 54.855469 35.210938 54.230469 C 35.257812 54.070312 35.363281 53.71875 35.441406 53.449219 C 35.519531 53.183594 35.628906 52.824219 35.679688 52.648438 L 35.773438 52.335938 L 36.09375 52.6875 C 37.339844 54.042969 39.007812 55.148438 40.527344 55.632812 C 41.519531 55.945312 42.019531 56.015625 43.101562 56.015625 C 44.507812 56.007812 45.589844 55.761719 46.796875 55.164062 C 47.621094 54.757812 48.746094 53.996094 49.273438 53.484375 C 49.710938 53.054688 49.710938 53.054688 49.410156 53.878906 C 48.015625 57.726562 46.128906 60.9375 43.683594 63.621094 C 43.0625 64.304688 43.3125 63.886719 40.929688 68.195312 C 39.296875 71.152344 35.835938 77.433594 34.535156 79.804688 L 33.539062 81.613281 L 33.515625 76.074219 L 33.492188 70.539062 L 33.363281 70.164062 C 33.292969 69.953125 33.164062 69.699219 33.074219 69.597656 C 32.75 69.21875 32.648438 69.1875 31.566406 69.132812 C 31.019531 69.109375 30.300781 69.035156 29.972656 68.984375 C 24.367188 68.015625 19.367188 63.625 16.128906 56.835938 C 15.523438 55.566406 14.769531 53.644531 14.410156 52.453125 C 14.28125 52.023438 14.28125 52.023438 14.765625 52.570312 Z M 14.765625 52.570312 "/>
<path style=" stroke:none;fill-rule:nonzero;fill:rgb(0%,0%,0%);fill-opacity:1;" d="M 21.496094 30.441406 C 21.230469 30.480469 20.75 30.605469 20.710938 30.636719 C 20.6875 30.65625 20.816406 30.898438 20.996094 31.179688 C 21.546875 32.042969 21.792969 32.980469 21.789062 34.21875 C 21.789062 34.792969 21.765625 34.980469 21.648438 35.488281 C 21.058594 38.09375 19.089844 39.269531 17.441406 38.015625 C 17.257812 37.871094 16.992188 37.609375 16.855469 37.433594 C 16.679688 37.195312 16.597656 37.128906 16.570312 37.1875 C 16.554688 37.234375 16.539062 37.800781 16.539062 38.445312 C 16.546875 39.539062 16.554688 39.667969 16.683594 40.382812 C 17.082031 42.628906 18.078125 44.480469 19.421875 45.496094 C 20.335938 46.179688 20.914062 46.386719 21.9375 46.386719 C 22.460938 46.386719 22.742188 46.355469 23.023438 46.261719 C 24.085938 45.925781 24.953125 45.222656 25.75 44.050781 C 26.800781 42.5 27.332031 40.605469 27.324219 38.445312 C 27.320312 34.09375 25.082031 30.632812 22.160156 30.449219 C 21.890625 30.429688 21.59375 30.429688 21.496094 30.441406 Z M 21.496094 30.441406 "/>
<path style=" stroke:none;fill-rule:nonzero;fill:rgb(0%,0%,0%);fill-opacity:1;" d="M 42.722656 30.441406 C 42.472656 30.480469 41.953125 30.613281 41.917969 30.644531 C 41.894531 30.65625 42.007812 30.851562 42.160156 31.082031 C 42.621094 31.765625 42.886719 32.578125 42.996094 33.613281 C 43.085938 34.523438 42.921875 35.59375 42.566406 36.425781 C 41.980469 37.800781 41.121094 38.488281 40 38.496094 C 39.289062 38.503906 38.625 38.136719 38.066406 37.429688 L 37.8125 37.101562 L 37.777344 37.351562 C 37.761719 37.488281 37.746094 37.996094 37.753906 38.476562 C 37.757812 39.445312 37.84375 40.226562 38.054688 41.082031 C 38.957031 44.765625 41.542969 46.933594 44.160156 46.191406 C 46.175781 45.625 47.832031 43.359375 48.371094 40.429688 C 48.726562 38.449219 48.53125 36.242188 47.839844 34.441406 C 47.203125 32.792969 46.121094 31.472656 44.894531 30.847656 C 44.3125 30.554688 43.261719 30.359375 42.722656 30.441406 Z M 42.722656 30.441406 "/>
<path style=" stroke:none;fill-rule:nonzero;fill:rgb(0%,0%,0%);fill-opacity:1;" d="M 96.765625 34.679688 C 96.746094 34.707031 96.738281 36.179688 96.738281 37.957031 C 96.738281 39.726562 96.742188 41.570312 96.738281 42.039062 L 96.738281 42.902344 L 96.460938 42.488281 C 95.929688 41.710938 95.277344 41.277344 94.453125 41.152344 C 92.199219 40.8125 90.4375 43.027344 90.1875 46.515625 C 90.070312 48.078125 90.328125 49.777344 90.855469 50.9375 C 91.273438 51.867188 91.96875 52.675781 92.652344 53.027344 C 94.167969 53.800781 95.894531 53.242188 96.628906 51.730469 C 96.726562 51.535156 96.816406 51.375 96.839844 51.367188 C 96.859375 51.367188 96.871094 51.765625 96.871094 52.246094 L 96.871094 53.125 L 98.730469 53.125 L 98.730469 34.636719 L 97.765625 34.636719 C 97.234375 34.636719 96.78125 34.65625 96.765625 34.679688 Z M 95.246094 43.90625 C 96.269531 44.441406 96.894531 45.867188 96.8125 47.492188 C 96.738281 49.074219 96.078125 50.273438 95.078125 50.652344 C 93.75 51.152344 92.480469 49.992188 92.203125 48.035156 C 92.117188 47.414062 92.117188 47.039062 92.199219 46.453125 C 92.375 45.242188 92.945312 44.289062 93.726562 43.898438 C 94.148438 43.683594 94.832031 43.691406 95.246094 43.90625 Z M 95.246094 43.90625 "/>
<path style=" stroke:none;fill-rule:nonzero;fill:rgb(0%,0%,0%);fill-opacity:1;" d="M 141.632812 43.878906 L 141.632812 53.125 L 142.621094 53.113281 L 143.601562 53.09375 L 143.617188 43.859375 L 143.625 34.636719 L 141.632812 34.636719 Z M 141.632812 43.878906 "/>
<path style=" stroke:none;fill-rule:nonzero;fill:rgb(0%,0%,0%);fill-opacity:1;" d="M 119.828125 35.417969 C 118.28125 35.566406 116.882812 36.40625 115.941406 37.746094 C 114.925781 39.191406 114.296875 41.160156 114.136719 43.371094 C 113.921875 46.417969 114.585938 49.324219 115.917969 51.132812 C 117.085938 52.734375 118.539062 53.515625 120.304688 53.515625 C 122.609375 53.507812 124.589844 51.953125 125.6875 49.289062 C 126.242188 47.949219 126.535156 46.277344 126.535156 44.460938 C 126.535156 42.226562 126.195312 40.535156 125.402344 38.867188 C 124.519531 37.003906 122.855469 35.644531 121.222656 35.449219 C 120.566406 35.371094 120.351562 35.371094 119.828125 35.417969 Z M 120.867188 38.214844 C 122.558594 38.527344 123.785156 40.164062 124.242188 42.726562 C 124.320312 43.171875 124.339844 43.449219 124.339844 44.335938 C 124.34375 45.417969 124.3125 45.773438 124.144531 46.589844 C 123.722656 48.644531 122.660156 50.125 121.242188 50.625 C 120.804688 50.78125 119.855469 50.78125 119.382812 50.625 C 118.1875 50.226562 117.144531 48.917969 116.667969 47.234375 C 116.140625 45.378906 116.164062 43.039062 116.734375 41.378906 C 117.054688 40.4375 117.632812 39.492188 118.179688 39.011719 C 118.960938 38.320312 119.90625 38.046875 120.867188 38.214844 Z M 120.867188 38.214844 "/>
<path style=" stroke:none;fill-rule:nonzero;fill:rgb(0%,0%,0%);fill-opacity:1;" d="M 68.25 35.488281 C 66.914062 35.789062 65.925781 36.640625 65.300781 38.007812 C 64.984375 38.699219 64.855469 39.347656 64.832031 40.363281 C 64.789062 41.746094 64.957031 42.625 65.421875 43.457031 C 65.925781 44.363281 66.527344 44.851562 68.050781 45.613281 C 69.121094 46.140625 69.585938 46.457031 69.921875 46.882812 C 70.179688 47.207031 70.289062 47.507812 70.347656 48.046875 C 70.488281 49.34375 69.886719 50.382812 68.816406 50.691406 C 67.839844 50.96875 66.636719 50.292969 66.074219 49.140625 L 65.992188 48.972656 L 65.199219 50.089844 L 64.410156 51.210938 L 64.785156 51.730469 C 65.222656 52.335938 65.660156 52.714844 66.261719 53.035156 C 67.410156 53.640625 68.875 53.671875 70.042969 53.113281 C 71.011719 52.648438 71.75 51.757812 72.1875 50.519531 C 72.484375 49.675781 72.613281 48.515625 72.53125 47.402344 C 72.441406 46.25 72.269531 45.675781 71.769531 44.902344 C 71.226562 44.054688 70.753906 43.683594 69.339844 42.996094 C 67.867188 42.273438 67.347656 41.855469 67.105469 41.183594 C 66.964844 40.789062 66.96875 39.933594 67.113281 39.492188 C 67.410156 38.613281 67.996094 38.191406 68.933594 38.191406 C 69.339844 38.191406 69.511719 38.214844 69.777344 38.339844 C 70.246094 38.554688 70.421875 38.699219 70.726562 39.128906 L 70.992188 39.503906 L 71.722656 38.367188 C 72.125 37.734375 72.457031 37.199219 72.46875 37.175781 C 72.492188 37.0625 71.941406 36.496094 71.480469 36.164062 C 70.753906 35.636719 70.261719 35.476562 69.289062 35.449219 C 68.863281 35.4375 68.394531 35.449219 68.25 35.488281 Z M 68.25 35.488281 "/>
<path style=" stroke:none;fill-rule:nonzero;fill:rgb(0%,0%,0%);fill-opacity:1;" d="M 75.265625 39.714844 L 75.265625 41.40625 L 73.628906 41.40625 L 73.628906 43.878906 L 75.265625 43.878906 L 75.265625 46.726562 C 75.265625 50.320312 75.308594 51.015625 75.578125 51.867188 C 75.726562 52.324219 76.03125 52.765625 76.351562 52.988281 C 76.785156 53.289062 77.058594 53.351562 77.855469 53.347656 C 78.582031 53.339844 79.007812 53.261719 79.351562 53.066406 L 79.472656 52.996094 L 79.472656 51.785156 C 79.472656 50.839844 79.457031 50.578125 79.417969 50.613281 C 79.113281 50.792969 78.824219 50.871094 78.410156 50.871094 C 77.980469 50.878906 77.925781 50.867188 77.734375 50.703125 C 77.578125 50.558594 77.5 50.4375 77.402344 50.148438 L 77.28125 49.773438 L 77.265625 46.824219 L 77.253906 43.878906 L 79.472656 43.878906 L 79.472656 41.40625 L 77.257812 41.40625 L 77.257812 38.019531 L 75.265625 38.019531 Z M 75.265625 39.714844 "/>
<path style=" stroke:none;fill-rule:nonzero;fill:rgb(0%,0%,0%);fill-opacity:1;" d="M 81.035156 45.617188 C 81.050781 50.339844 81.046875 50.261719 81.375 51.277344 C 81.800781 52.585938 82.589844 53.289062 83.699219 53.367188 C 84.304688 53.410156 84.824219 53.28125 85.21875 52.980469 C 85.546875 52.742188 86.007812 52.089844 86.214844 51.582031 C 86.289062 51.394531 86.371094 51.238281 86.386719 51.238281 C 86.410156 51.238281 86.421875 51.660156 86.421875 52.179688 L 86.421875 53.125 L 88.28125 53.125 L 88.28125 41.40625 L 86.289062 41.40625 L 86.289062 44.871094 C 86.289062 48.652344 86.277344 48.839844 86.039062 49.5 C 85.90625 49.851562 85.5625 50.332031 85.3125 50.527344 C 85.046875 50.722656 84.566406 50.8125 84.222656 50.730469 C 83.554688 50.566406 83.203125 49.929688 83.058594 48.59375 C 83.03125 48.378906 83.011719 46.6875 83.011719 44.804688 L 83.011719 41.40625 L 81.015625 41.40625 Z M 81.035156 45.617188 "/>
<path style=" stroke:none;fill-rule:nonzero;fill:rgb(0%,0%,0%);fill-opacity:1;" d="M 99.960938 41.515625 C 99.988281 41.582031 100.753906 44.230469 101.671875 47.410156 L 103.335938 53.191406 L 103.113281 54.011719 C 102.707031 55.5 102.566406 55.832031 102.214844 56.105469 C 102 56.277344 101.953125 56.28125 101.410156 56.277344 C 101.007812 56.277344 100.765625 56.238281 100.613281 56.164062 C 100.492188 56.105469 100.386719 56.066406 100.378906 56.085938 C 100.367188 56.101562 100.308594 56.671875 100.234375 57.371094 C 100.15625 58.195312 100.128906 58.640625 100.160156 58.664062 C 100.351562 58.847656 101.511719 59.003906 102.074219 58.917969 C 103.226562 58.761719 103.863281 58.09375 104.398438 56.476562 C 104.582031 55.910156 107.230469 46.027344 108.40625 41.515625 C 108.4375 41.414062 108.371094 41.40625 107.402344 41.40625 L 106.367188 41.40625 L 105.554688 44.746094 C 104.457031 49.230469 104.394531 49.480469 104.359375 49.480469 C 104.339844 49.480469 103.832031 47.664062 103.226562 45.441406 L 102.121094 41.40625 L 101.019531 41.40625 C 99.988281 41.40625 99.925781 41.414062 99.960938 41.515625 Z M 99.960938 41.515625 "/>
<path style=" stroke:none;fill-rule:nonzero;fill:rgb(0%,0%,0%);fill-opacity:1;" d="M 127.46875 42.136719 C 127.566406 42.539062 128.191406 45.167969 128.855469 47.980469 L 130.0625 53.09375 L 131.085938 53.113281 L 132.109375 53.125 L 132.265625 52.394531 C 132.347656 51.992188 132.71875 50.222656 133.085938 48.46875 C 133.859375 44.792969 133.792969 45.085938 133.828125 45.136719 C 133.839844 45.164062 134.273438 46.960938 134.789062 49.132812 L 135.726562 53.09375 L 136.703125 53.113281 L 137.683594 53.125 L 137.753906 52.820312 C 137.796875 52.644531 138.394531 50.058594 139.085938 47.0625 C 139.777344 44.070312 140.355469 41.574219 140.375 41.515625 C 140.402344 41.414062 140.316406 41.40625 139.402344 41.40625 L 138.40625 41.40625 L 138.273438 42.039062 C 138.199219 42.390625 137.828125 44.21875 137.445312 46.105469 C 137.0625 48 136.734375 49.542969 136.71875 49.542969 C 136.699219 49.542969 136.300781 47.714844 135.832031 45.476562 L 134.972656 41.40625 L 133.894531 41.417969 L 132.8125 41.4375 L 132.011719 45.519531 C 131.570312 47.773438 131.195312 49.589844 131.179688 49.558594 C 131.15625 49.519531 129.636719 42.382812 129.492188 41.613281 L 129.453125 41.40625 L 127.292969 41.40625 Z M 127.46875 42.136719 "/>
</g>
</svg>
