<?xml version="1.0" encoding="UTF-8"?>
<svg xmlns="http://www.w3.org/2000/svg" xmlns:xlink="http://www.w3.org/1999/xlink" width="176px" height="80px" viewBox="0 0 176 80" version="1.1">
<g id="surface1">
<path style=" stroke:none;fill-rule:nonzero;fill:rgb(0%,0%,0%);fill-opacity:1;" d="M 36.695312 6.515625 C 30.800781 6.792969 25.515625 8.875 20.988281 12.703125 C 19.824219 13.6875 18.328125 15.253906 17.429688 16.421875 L 17.121094 16.824219 L 12.882812 16.824219 C 8.742188 16.824219 8.644531 16.828125 8.414062 16.933594 C 7.910156 17.160156 7.648438 17.488281 7.496094 18.050781 C 7.339844 18.667969 7.671875 19.386719 8.269531 19.71875 L 8.546875 19.871094 L 11.828125 19.886719 L 15.117188 19.902344 L 14.679688 20.777344 C 14.160156 21.808594 13.863281 22.488281 13.453125 23.59375 C 13.289062 24.035156 13.066406 24.578125 12.960938 24.792969 C 12.539062 25.640625 12.128906 26.859375 11.902344 27.917969 C 11.699219 28.878906 11.625 29.613281 11.625 30.730469 C 11.632812 31.890625 11.679688 32.425781 11.863281 33.464844 C 11.9375 33.832031 12.015625 34.441406 12.050781 34.816406 C 12.304688 37.808594 13.167969 40.890625 14.519531 43.671875 C 18.421875 51.691406 26.21875 57.203125 34.941406 58.097656 C 35.367188 58.140625 35.871094 58.1875 36.066406 58.207031 L 36.414062 58.238281 L 36.414062 63.957031 C 36.414062 69.582031 36.414062 69.6875 36.519531 69.96875 C 36.808594 70.746094 37.777344 71.109375 38.523438 70.722656 C 38.835938 70.5625 38.445312 71.03125 44.46875 63.59375 C 47.191406 60.230469 49.855469 56.949219 50.390625 56.300781 C 50.917969 55.65625 51.652344 54.765625 52.011719 54.324219 C 52.375 53.878906 52.757812 53.441406 52.867188 53.359375 C 52.976562 53.269531 53.273438 53.042969 53.53125 52.84375 C 54.789062 51.875 56.523438 50.207031 57.496094 49.035156 C 60.332031 45.621094 62.238281 41.621094 63.070312 37.34375 C 63.132812 37.015625 63.265625 36.558594 63.367188 36.328125 C 63.875 35.128906 64.222656 33.84375 64.390625 32.542969 C 64.539062 31.328125 64.484375 29.472656 64.253906 28.28125 C 63.847656 26.175781 62.941406 24.09375 61.730469 22.496094 C 61.578125 22.296875 61.242188 21.6875 60.941406 21.066406 C 60.65625 20.472656 60.414062 19.980469 60.414062 19.96875 C 60.414062 19.957031 62.019531 19.941406 63.988281 19.9375 C 67.417969 19.921875 67.570312 19.917969 67.765625 19.816406 C 68.441406 19.484375 68.769531 18.699219 68.550781 17.941406 C 68.476562 17.703125 68.398438 17.578125 68.167969 17.34375 C 67.664062 16.84375 68.019531 16.875 62.882812 16.875 L 58.410156 16.875 L 58.074219 16.441406 C 57.105469 15.214844 55.699219 13.746094 54.503906 12.71875 C 51.980469 10.546875 48.945312 8.828125 45.800781 7.792969 C 43.671875 7.082031 41.3125 6.640625 39.144531 6.535156 C 37.832031 6.472656 37.558594 6.472656 36.695312 6.515625 Z M 39.5625 9.480469 C 42.523438 9.71875 45.230469 10.484375 48 11.871094 C 50.136719 12.9375 51.957031 14.25 53.753906 16.015625 L 54.554688 16.796875 L 51.601562 16.824219 C 49.003906 16.84375 48.628906 16.859375 48.46875 16.9375 C 48.367188 16.984375 48.042969 17.074219 47.742188 17.136719 C 45.761719 17.550781 43.726562 18.46875 42.207031 19.628906 C 40.566406 20.886719 39.179688 22.488281 38.296875 24.15625 L 38.066406 24.589844 L 37.753906 24.027344 C 36.105469 21.046875 33.460938 18.777344 30.316406 17.628906 C 29.679688 17.402344 28.820312 17.15625 28.105469 17.003906 C 27.917969 16.964844 27.636719 16.894531 27.480469 16.847656 C 27.226562 16.769531 26.839844 16.765625 24.066406 16.78125 C 21.261719 16.796875 20.945312 16.792969 20.988281 16.71875 C 21.050781 16.605469 22.230469 15.457031 22.777344 14.980469 C 24.960938 13.078125 27.8125 11.464844 30.648438 10.535156 C 32.253906 10.011719 34.265625 9.605469 35.863281 9.484375 C 36.660156 9.421875 38.808594 9.421875 39.5625 9.480469 Z M 26.910156 20.003906 C 29.601562 20.339844 32.246094 21.808594 33.84375 23.855469 C 34.507812 24.707031 34.847656 25.230469 35.222656 26 C 37.117188 29.886719 36.578125 34.410156 33.824219 37.71875 C 32.554688 39.238281 30.792969 40.449219 28.988281 41.042969 C 25.921875 42.046875 22.753906 41.707031 20.03125 40.074219 C 19.25 39.605469 18.6875 39.15625 17.96875 38.4375 C 17.277344 37.75 16.894531 37.277344 16.457031 36.582031 C 15.433594 34.941406 14.839844 33.136719 14.851562 31.667969 C 14.855469 30.496094 15.023438 29.089844 15.324219 27.628906 C 15.511719 26.71875 15.703125 26.214844 16.152344 25.425781 C 17.421875 23.203125 19.421875 21.496094 21.796875 20.609375 C 23.445312 19.996094 25.164062 19.792969 26.910156 20.003906 Z M 51.921875 20.058594 C 54.46875 20.355469 56.980469 21.71875 58.695312 23.722656 C 59.117188 24.214844 59.164062 24.285156 59.335938 24.796875 C 59.949219 26.5625 60.320312 28.265625 60.53125 30.183594 C 60.617188 31.011719 60.617188 33.847656 60.53125 34.609375 C 60.46875 35.113281 60.429688 35.238281 60.230469 35.652344 C 59.011719 38.074219 57.042969 39.890625 54.535156 40.90625 C 53.9375 41.144531 53.105469 41.378906 52.363281 41.519531 C 51.859375 41.621094 51.578125 41.636719 50.570312 41.636719 C 49.546875 41.636719 49.28125 41.621094 48.738281 41.519531 C 47.589844 41.308594 46.625 40.984375 45.648438 40.488281 C 42.898438 39.097656 40.785156 36.453125 40.058594 33.488281 C 39.824219 32.519531 39.742188 31.832031 39.734375 30.792969 C 39.730469 29.058594 40.0625 27.605469 40.832031 26.058594 C 42.222656 23.246094 44.695312 21.1875 47.667969 20.371094 C 49.101562 19.972656 50.40625 19.878906 51.921875 20.058594 Z M 38.832031 38.410156 C 38.996094 38.667969 39.273438 39.0625 39.4375 39.28125 L 39.746094 39.6875 L 39.570312 39.839844 C 39.34375 40.042969 39.238281 40.25 38.59375 41.734375 L 38.058594 42.980469 L 37.9375 42.722656 C 37.796875 42.425781 37.636719 42.066406 37.195312 41.042969 C 36.824219 40.191406 36.738281 40.042969 36.484375 39.816406 L 36.304688 39.65625 L 36.484375 39.453125 C 36.773438 39.113281 37.421875 38.136719 37.742188 37.5625 L 38.042969 37.019531 L 38.285156 37.484375 C 38.414062 37.734375 38.664062 38.152344 38.832031 38.410156 Z M 17.324219 42.058594 C 19.175781 43.472656 21.65625 44.433594 24.15625 44.691406 C 25.601562 44.84375 27.640625 44.703125 28.847656 44.371094 C 30.820312 43.824219 32.421875 43.082031 33.714844 42.113281 C 33.921875 41.957031 34.105469 41.832031 34.109375 41.839844 C 34.113281 41.84375 34.488281 42.691406 34.933594 43.722656 C 35.386719 44.753906 35.816406 45.738281 35.894531 45.910156 C 35.972656 46.082031 36.1875 46.5625 36.367188 46.980469 C 36.738281 47.824219 36.945312 48.097656 37.375 48.324219 C 37.902344 48.59375 38.671875 48.480469 39.105469 48.058594 C 39.351562 47.824219 39.464844 47.609375 39.964844 46.457031 C 40.382812 45.488281 41.085938 43.886719 41.3125 43.386719 C 41.371094 43.253906 41.492188 42.972656 41.585938 42.761719 C 41.679688 42.546875 41.800781 42.261719 41.863281 42.121094 L 41.972656 41.871094 L 42.347656 42.152344 C 43.8125 43.234375 45.769531 44.121094 47.554688 44.503906 C 48.71875 44.753906 49.304688 44.8125 50.570312 44.8125 C 52.222656 44.808594 53.492188 44.609375 54.910156 44.128906 C 55.875 43.808594 57.195312 43.199219 57.8125 42.785156 C 58.328125 42.441406 58.328125 42.441406 57.972656 43.105469 C 56.335938 46.183594 54.125 48.75 51.257812 50.894531 C 50.523438 51.441406 50.820312 51.109375 48.027344 54.558594 C 46.109375 56.921875 42.046875 61.949219 40.519531 63.84375 L 39.351562 65.292969 L 39.324219 60.859375 L 39.296875 56.433594 L 39.148438 56.128906 C 39.066406 55.964844 38.914062 55.761719 38.804688 55.675781 C 38.425781 55.375 38.304688 55.347656 37.039062 55.308594 C 36.394531 55.285156 35.554688 55.230469 35.167969 55.1875 C 28.59375 54.410156 22.722656 50.902344 18.925781 45.46875 C 18.214844 44.453125 17.328125 42.917969 16.910156 41.964844 C 16.757812 41.621094 16.757812 41.621094 17.324219 42.058594 Z M 17.324219 42.058594 "/>
<path style=" stroke:none;fill-rule:nonzero;fill:rgb(0%,0%,0%);fill-opacity:1;" d="M 25.222656 24.355469 C 24.910156 24.386719 24.347656 24.484375 24.300781 24.511719 C 24.273438 24.527344 24.425781 24.71875 24.632812 24.941406 C 25.28125 25.636719 25.570312 26.386719 25.5625 27.375 C 25.5625 27.832031 25.539062 27.984375 25.402344 28.390625 C 24.707031 30.472656 22.398438 31.417969 20.460938 30.410156 C 20.25 30.296875 19.9375 30.089844 19.777344 29.949219 C 19.570312 29.753906 19.476562 29.703125 19.445312 29.75 C 19.421875 29.785156 19.40625 30.238281 19.40625 30.753906 C 19.414062 31.628906 19.421875 31.734375 19.574219 32.308594 C 20.042969 34.105469 21.210938 35.582031 22.789062 36.394531 C 23.859375 36.941406 24.539062 37.109375 25.742188 37.109375 C 26.351562 37.109375 26.6875 37.082031 27.011719 37.011719 C 28.257812 36.738281 29.277344 36.175781 30.214844 35.238281 C 31.445312 34 32.066406 32.484375 32.0625 30.753906 C 32.058594 27.277344 29.429688 24.503906 26 24.359375 C 25.683594 24.34375 25.335938 24.34375 25.222656 24.355469 Z M 25.222656 24.355469 "/>
<path style=" stroke:none;fill-rule:nonzero;fill:rgb(0%,0%,0%);fill-opacity:1;" d="M 50.128906 24.355469 C 49.832031 24.386719 49.226562 24.488281 49.183594 24.515625 C 49.160156 24.527344 49.289062 24.683594 49.46875 24.863281 C 50.011719 25.410156 50.320312 26.0625 50.445312 26.890625 C 50.554688 27.621094 50.363281 28.472656 49.941406 29.140625 C 49.257812 30.238281 48.25 30.792969 46.933594 30.796875 C 46.097656 30.800781 45.320312 30.511719 44.664062 29.941406 L 44.367188 29.683594 L 44.328125 29.878906 C 44.304688 29.988281 44.289062 30.394531 44.296875 30.78125 C 44.300781 31.558594 44.40625 32.183594 44.648438 32.863281 C 45.710938 35.8125 48.742188 37.546875 51.8125 36.953125 C 54.183594 36.5 56.125 34.6875 56.753906 32.34375 C 57.175781 30.761719 56.945312 28.996094 56.128906 27.550781 C 55.386719 26.234375 54.113281 25.175781 52.675781 24.675781 C 51.996094 24.441406 50.757812 24.285156 50.128906 24.355469 Z M 50.128906 24.355469 "/>
<path style=" stroke:none;fill-rule:nonzero;fill:rgb(0%,0%,0%);fill-opacity:1;" d="M 113.539062 27.746094 C 113.515625 27.765625 113.507812 28.941406 113.507812 30.363281 C 113.507812 31.78125 113.511719 33.253906 113.507812 33.628906 L 113.507812 34.324219 L 113.179688 33.988281 C 112.554688 33.371094 111.792969 33.019531 110.824219 32.921875 C 108.183594 32.652344 106.113281 34.421875 105.816406 37.214844 C 105.683594 38.464844 105.984375 39.824219 106.601562 40.75 C 107.097656 41.496094 107.910156 42.140625 108.710938 42.421875 C 110.488281 43.042969 112.515625 42.59375 113.375 41.386719 C 113.492188 41.230469 113.601562 41.097656 113.625 41.09375 C 113.648438 41.09375 113.664062 41.410156 113.664062 41.796875 L 113.664062 42.5 L 115.84375 42.5 L 115.84375 27.707031 L 114.710938 27.707031 C 114.089844 27.707031 113.558594 27.722656 113.539062 27.746094 Z M 111.753906 35.125 C 112.957031 35.550781 113.6875 36.691406 113.59375 37.996094 C 113.507812 39.261719 112.734375 40.21875 111.558594 40.519531 C 110 40.921875 108.507812 39.996094 108.1875 38.425781 C 108.082031 37.933594 108.082031 37.628906 108.183594 37.160156 C 108.382812 36.191406 109.054688 35.433594 109.972656 35.121094 C 110.46875 34.949219 111.265625 34.953125 111.753906 35.125 Z M 111.753906 35.125 "/>
<path style=" stroke:none;fill-rule:nonzero;fill:rgb(0%,0%,0%);fill-opacity:1;" d="M 166.183594 35.105469 L 166.183594 42.5 L 167.339844 42.488281 L 168.492188 42.472656 L 168.507812 35.089844 L 168.519531 27.707031 L 166.183594 27.707031 Z M 166.183594 35.105469 "/>
<path style=" stroke:none;fill-rule:nonzero;fill:rgb(0%,0%,0%);fill-opacity:1;" d="M 140.597656 28.332031 C 138.785156 28.453125 137.144531 29.125 136.035156 30.199219 C 134.847656 31.355469 134.109375 32.925781 133.921875 34.699219 C 133.667969 37.136719 134.445312 39.457031 136.011719 40.90625 C 137.382812 42.1875 139.085938 42.8125 141.160156 42.8125 C 143.859375 42.808594 146.1875 41.5625 147.476562 39.433594 C 148.125 38.359375 148.46875 37.019531 148.46875 35.566406 C 148.46875 33.78125 148.066406 32.425781 147.136719 31.09375 C 146.105469 29.605469 144.152344 28.515625 142.234375 28.359375 C 141.464844 28.296875 141.210938 28.296875 140.597656 28.332031 Z M 141.816406 30.574219 C 143.800781 30.824219 145.242188 32.128906 145.777344 34.183594 C 145.871094 34.535156 145.890625 34.761719 145.890625 35.46875 C 145.894531 36.332031 145.859375 36.621094 145.664062 37.269531 C 145.167969 38.917969 143.921875 40.097656 142.257812 40.5 C 141.746094 40.625 140.628906 40.625 140.078125 40.5 C 138.675781 40.183594 137.449219 39.136719 136.886719 37.785156 C 136.269531 36.300781 136.300781 34.433594 136.964844 33.105469 C 137.34375 32.347656 138.019531 31.59375 138.664062 31.207031 C 139.578125 30.65625 140.691406 30.4375 141.816406 30.574219 Z M 141.816406 30.574219 "/>
<path style=" stroke:none;fill-rule:nonzero;fill:rgb(0%,0%,0%);fill-opacity:1;" d="M 80.078125 28.390625 C 78.515625 28.628906 77.351562 29.3125 76.617188 30.40625 C 76.25 30.957031 76.097656 31.480469 76.066406 32.292969 C 76.019531 33.394531 76.21875 34.097656 76.761719 34.765625 C 77.351562 35.488281 78.058594 35.878906 79.84375 36.488281 C 81.101562 36.910156 81.648438 37.167969 82.042969 37.503906 C 82.34375 37.765625 82.472656 38.003906 82.539062 38.4375 C 82.707031 39.472656 82 40.308594 80.742188 40.550781 C 79.601562 40.777344 78.1875 40.234375 77.527344 39.3125 L 77.429688 39.175781 L 76.5 40.074219 L 75.574219 40.96875 L 76.015625 41.386719 C 76.53125 41.871094 77.039062 42.171875 77.746094 42.425781 C 79.097656 42.910156 80.816406 42.9375 82.183594 42.488281 C 83.320312 42.121094 84.1875 41.40625 84.703125 40.417969 C 85.050781 39.738281 85.199219 38.8125 85.101562 37.921875 C 84.996094 37 84.792969 36.542969 84.207031 35.921875 C 83.574219 35.246094 83.019531 34.949219 81.359375 34.394531 C 79.632812 33.816406 79.023438 33.484375 78.738281 32.949219 C 78.570312 32.628906 78.578125 31.949219 78.75 31.59375 C 79.097656 30.890625 79.78125 30.550781 80.882812 30.550781 C 81.359375 30.550781 81.558594 30.574219 81.871094 30.671875 C 82.421875 30.84375 82.628906 30.957031 82.988281 31.300781 L 83.296875 31.605469 L 84.15625 30.691406 C 84.628906 30.1875 85.019531 29.761719 85.027344 29.738281 C 85.058594 29.652344 84.410156 29.199219 83.871094 28.933594 C 83.019531 28.511719 82.441406 28.378906 81.296875 28.359375 C 80.800781 28.347656 80.25 28.359375 80.078125 28.390625 Z M 80.078125 28.390625 "/>
<path style=" stroke:none;fill-rule:nonzero;fill:rgb(0%,0%,0%);fill-opacity:1;" d="M 88.3125 31.769531 L 88.3125 33.125 L 86.390625 33.125 L 86.390625 35.105469 L 88.3125 35.105469 L 88.3125 37.378906 C 88.3125 40.253906 88.363281 40.8125 88.679688 41.496094 C 88.851562 41.859375 89.210938 42.214844 89.585938 42.390625 C 90.09375 42.628906 90.414062 42.683594 91.351562 42.675781 C 92.203125 42.671875 92.703125 42.609375 93.105469 42.453125 L 93.246094 42.394531 L 93.246094 41.425781 C 93.246094 40.671875 93.230469 40.464844 93.183594 40.488281 C 92.824219 40.636719 92.488281 40.699219 92 40.699219 C 91.496094 40.703125 91.433594 40.691406 91.210938 40.5625 C 91.023438 40.449219 90.933594 40.347656 90.820312 40.121094 L 90.675781 39.816406 L 90.660156 37.457031 L 90.644531 35.105469 L 93.246094 35.105469 L 93.246094 33.125 L 90.648438 33.125 L 90.648438 30.417969 L 88.3125 30.417969 Z M 88.3125 31.769531 "/>
<path style=" stroke:none;fill-rule:nonzero;fill:rgb(0%,0%,0%);fill-opacity:1;" d="M 95.082031 36.496094 C 95.101562 40.269531 95.097656 40.207031 95.480469 41.019531 C 95.980469 42.066406 96.902344 42.628906 98.207031 42.691406 C 98.917969 42.730469 99.527344 42.625 99.988281 42.386719 C 100.375 42.191406 100.914062 41.671875 101.160156 41.265625 C 101.246094 41.113281 101.339844 40.988281 101.359375 40.988281 C 101.386719 40.988281 101.402344 41.328125 101.402344 41.746094 L 101.402344 42.5 L 103.585938 42.5 L 103.585938 33.125 L 101.246094 33.125 L 101.246094 35.894531 C 101.246094 38.921875 101.230469 39.074219 100.949219 39.597656 C 100.792969 39.878906 100.394531 40.265625 100.097656 40.421875 C 99.785156 40.578125 99.226562 40.652344 98.820312 40.582031 C 98.035156 40.453125 97.625 39.941406 97.453125 38.875 C 97.421875 38.703125 97.402344 37.347656 97.402344 35.84375 L 97.402344 33.125 L 95.058594 33.125 Z M 95.082031 36.496094 "/>
<path style=" stroke:none;fill-rule:nonzero;fill:rgb(0%,0%,0%);fill-opacity:1;" d="M 117.289062 33.214844 C 117.320312 33.265625 118.21875 35.386719 119.292969 37.925781 L 121.246094 42.550781 L 120.988281 43.207031 C 120.507812 44.402344 120.34375 44.667969 119.933594 44.886719 C 119.679688 45.019531 119.625 45.027344 118.988281 45.019531 C 118.515625 45.019531 118.234375 44.988281 118.050781 44.933594 C 117.910156 44.886719 117.785156 44.855469 117.777344 44.871094 C 117.765625 44.878906 117.695312 45.339844 117.609375 45.894531 C 117.515625 46.558594 117.484375 46.910156 117.523438 46.933594 C 117.746094 47.078125 119.105469 47.203125 119.765625 47.136719 C 121.117188 47.011719 121.863281 46.472656 122.492188 45.183594 C 122.710938 44.730469 125.816406 36.824219 127.195312 33.214844 C 127.230469 33.128906 127.152344 33.125 126.019531 33.125 L 124.804688 33.125 L 123.847656 35.796875 C 122.5625 39.386719 122.488281 39.582031 122.445312 39.582031 C 122.425781 39.582031 121.828125 38.128906 121.117188 36.355469 L 119.824219 33.125 L 118.53125 33.125 C 117.320312 33.125 117.246094 33.128906 117.289062 33.214844 Z M 117.289062 33.214844 "/>
<path style=" stroke:none;fill-rule:nonzero;fill:rgb(0%,0%,0%);fill-opacity:1;" d="M 149.5625 33.707031 C 149.679688 34.03125 150.410156 36.136719 151.191406 38.386719 L 152.609375 42.472656 L 153.808594 42.488281 L 155.007812 42.5 L 155.191406 41.917969 C 155.289062 41.59375 155.726562 40.175781 156.15625 38.777344 C 157.058594 35.832031 156.980469 36.066406 157.023438 36.109375 C 157.039062 36.128906 157.546875 37.566406 158.152344 39.308594 L 159.25 42.472656 L 160.398438 42.488281 L 161.546875 42.5 L 161.632812 42.253906 C 161.683594 42.113281 162.382812 40.046875 163.195312 37.652344 C 164.003906 35.253906 164.6875 33.261719 164.707031 33.214844 C 164.738281 33.128906 164.640625 33.125 163.5625 33.125 L 162.394531 33.125 L 162.238281 33.628906 C 162.15625 33.910156 161.71875 35.375 161.265625 36.886719 C 160.820312 38.402344 160.4375 39.636719 160.414062 39.636719 C 160.394531 39.636719 159.925781 38.171875 159.375 36.378906 L 158.367188 33.125 L 157.101562 33.136719 L 155.832031 33.152344 L 154.894531 36.417969 C 154.375 38.21875 153.9375 39.671875 153.917969 39.644531 C 153.890625 39.613281 152.109375 33.90625 151.9375 33.292969 L 151.890625 33.125 L 149.355469 33.125 Z M 149.5625 33.707031 "/>
</g>
</svg>
