<?xml version="1.0" encoding="UTF-8"?>
<svg xmlns="http://www.w3.org/2000/svg" xmlns:xlink="http://www.w3.org/1999/xlink" width="100px" height="107px" viewBox="0 0 100 106" version="1.1">
<g id="surface1">
<path style=" stroke:none;fill-rule:nonzero;fill:rgb(0%,0%,0%);fill-opacity:1;" d="M 49.050781 5.417969 C 40.234375 5.828125 32.332031 8.921875 25.558594 14.601562 C 23.820312 16.0625 21.582031 18.390625 20.238281 20.121094 L 19.78125 20.71875 L 13.441406 20.71875 C 7.25 20.71875 7.101562 20.726562 6.757812 20.878906 C 6.003906 21.21875 5.609375 21.707031 5.382812 22.542969 C 5.152344 23.453125 5.648438 24.519531 6.542969 25.015625 L 6.953125 25.238281 L 11.863281 25.261719 L 16.78125 25.285156 L 16.128906 26.585938 C 15.351562 28.117188 14.910156 29.128906 14.292969 30.765625 C 14.046875 31.425781 13.710938 32.226562 13.554688 32.546875 C 12.925781 33.804688 12.3125 35.613281 11.972656 37.183594 C 11.667969 38.613281 11.558594 39.703125 11.558594 41.359375 C 11.566406 43.082031 11.636719 43.878906 11.917969 45.417969 C 12.027344 45.964844 12.144531 46.871094 12.195312 47.425781 C 12.578125 51.863281 13.867188 56.441406 15.886719 60.566406 C 21.722656 72.472656 33.382812 80.652344 46.425781 81.980469 C 47.0625 82.042969 47.816406 82.113281 48.113281 82.144531 L 48.632812 82.191406 L 48.632812 90.679688 C 48.632812 99.027344 48.632812 99.183594 48.789062 99.597656 C 49.222656 100.75 50.667969 101.292969 51.785156 100.71875 C 52.253906 100.480469 51.671875 101.175781 60.675781 90.136719 C 64.746094 85.144531 68.730469 80.273438 69.53125 79.316406 C 70.324219 78.355469 71.417969 77.035156 71.953125 76.375 C 72.5 75.71875 73.074219 75.070312 73.238281 74.945312 C 73.398438 74.816406 73.84375 74.476562 74.230469 74.179688 C 76.109375 72.742188 78.707031 70.269531 80.160156 68.53125 C 84.398438 63.460938 87.25 57.523438 88.496094 51.175781 C 88.585938 50.6875 88.789062 50.007812 88.9375 49.667969 C 89.699219 47.890625 90.21875 45.980469 90.46875 44.046875 C 90.691406 42.246094 90.609375 39.496094 90.265625 37.726562 C 89.660156 34.601562 88.300781 31.507812 86.488281 29.136719 C 86.265625 28.84375 85.761719 27.9375 85.308594 27.019531 C 84.882812 26.136719 84.523438 25.402344 84.523438 25.386719 C 84.523438 25.371094 86.925781 25.347656 89.871094 25.339844 C 94.996094 25.316406 95.222656 25.308594 95.515625 25.164062 C 96.527344 24.667969 97.015625 23.5 96.691406 22.378906 C 96.582031 22.023438 96.464844 21.839844 96.117188 21.492188 C 95.363281 20.75 95.898438 20.796875 88.214844 20.796875 L 81.527344 20.796875 L 81.019531 20.152344 C 79.574219 18.328125 77.46875 16.148438 75.683594 14.625 C 71.90625 11.402344 67.371094 8.851562 62.671875 7.3125 C 59.484375 6.261719 55.957031 5.605469 52.710938 5.449219 C 50.753906 5.355469 50.34375 5.355469 49.050781 5.417969 Z M 53.339844 9.816406 C 57.769531 10.171875 61.816406 11.308594 65.957031 13.367188 C 69.148438 14.949219 71.875 16.898438 74.566406 19.519531 L 75.761719 20.679688 L 71.339844 20.71875 C 67.457031 20.75 66.898438 20.773438 66.65625 20.886719 C 66.507812 20.957031 66.019531 21.089844 65.570312 21.179688 C 62.609375 21.800781 59.5625 23.160156 57.292969 24.882812 C 54.839844 26.746094 52.765625 29.128906 51.445312 31.601562 L 51.101562 32.242188 L 50.636719 31.410156 C 48.167969 26.988281 44.210938 23.617188 39.511719 21.914062 C 38.554688 21.574219 37.273438 21.210938 36.203125 20.988281 C 35.921875 20.925781 35.503906 20.824219 35.269531 20.757812 C 34.890625 20.640625 34.316406 20.632812 30.167969 20.65625 C 25.972656 20.679688 25.496094 20.671875 25.558594 20.5625 C 25.652344 20.394531 27.417969 18.691406 28.238281 17.980469 C 31.503906 15.160156 35.765625 12.761719 40.007812 11.386719 C 42.410156 10.605469 45.417969 10.003906 47.808594 9.824219 C 48.996094 9.734375 52.214844 9.734375 53.339844 9.816406 Z M 34.414062 25.441406 C 38.441406 25.9375 42.394531 28.117188 44.789062 31.152344 C 45.78125 32.421875 46.285156 33.195312 46.847656 34.339844 C 49.679688 40.105469 48.875 46.824219 44.757812 51.730469 C 42.859375 53.988281 40.226562 55.78125 37.523438 56.664062 C 32.941406 58.15625 28.199219 57.652344 24.128906 55.226562 C 22.964844 54.53125 22.117188 53.867188 21.046875 52.800781 C 20.011719 51.777344 19.4375 51.074219 18.785156 50.046875 C 17.253906 47.613281 16.367188 44.929688 16.382812 42.75 C 16.390625 41.011719 16.640625 38.921875 17.089844 36.757812 C 17.371094 35.40625 17.660156 34.65625 18.328125 33.488281 C 20.230469 30.1875 23.222656 27.652344 26.769531 26.335938 C 29.234375 25.425781 31.804688 25.125 34.414062 25.441406 Z M 71.824219 25.519531 C 75.628906 25.957031 79.390625 27.984375 81.953125 30.960938 C 82.582031 31.6875 82.652344 31.796875 82.910156 32.554688 C 83.824219 35.171875 84.382812 37.703125 84.695312 40.546875 C 84.828125 41.773438 84.828125 45.988281 84.695312 47.117188 C 84.601562 47.867188 84.546875 48.050781 84.246094 48.664062 C 82.425781 52.257812 79.484375 54.957031 75.730469 56.464844 C 74.835938 56.820312 73.59375 57.167969 72.484375 57.375 C 71.730469 57.523438 71.308594 57.546875 69.800781 57.546875 C 68.273438 57.546875 67.875 57.523438 67.058594 57.375 C 65.34375 57.058594 63.898438 56.578125 62.4375 55.84375 C 58.328125 53.78125 55.167969 49.855469 54.078125 45.453125 C 53.730469 44.015625 53.605469 42.996094 53.597656 41.449219 C 53.589844 38.875 54.085938 36.71875 55.234375 34.421875 C 57.316406 30.25 61.015625 27.195312 65.460938 25.980469 C 67.605469 25.394531 69.554688 25.253906 71.824219 25.519531 Z M 52.246094 52.761719 C 52.492188 53.140625 52.90625 53.726562 53.152344 54.050781 L 53.613281 54.65625 L 53.347656 54.878906 C 53.015625 55.179688 52.851562 55.488281 51.886719 57.691406 L 51.085938 59.539062 L 50.910156 59.160156 C 50.699219 58.71875 50.457031 58.1875 49.796875 56.664062 C 49.246094 55.402344 49.113281 55.179688 48.734375 54.847656 L 48.46875 54.609375 L 48.734375 54.304688 C 49.167969 53.804688 50.140625 52.351562 50.613281 51.5 L 51.0625 50.695312 L 51.429688 51.382812 C 51.625 51.753906 51.996094 52.375 52.246094 52.761719 Z M 20.082031 58.171875 C 22.847656 60.273438 26.5625 61.695312 30.296875 62.082031 C 32.457031 62.308594 35.511719 62.097656 37.3125 61.605469 C 40.265625 60.792969 42.660156 59.695312 44.59375 58.257812 C 44.902344 58.023438 45.175781 57.839844 45.183594 57.847656 C 45.191406 57.855469 45.75 59.113281 46.417969 60.644531 C 47.09375 62.175781 47.738281 63.636719 47.855469 63.890625 C 47.972656 64.148438 48.289062 64.859375 48.5625 65.476562 C 49.113281 66.730469 49.425781 67.140625 50.070312 67.472656 C 50.855469 67.875 52.003906 67.703125 52.65625 67.078125 C 53.023438 66.730469 53.191406 66.414062 53.9375 64.703125 C 54.566406 63.265625 55.617188 60.886719 55.957031 60.144531 C 56.042969 59.949219 56.222656 59.53125 56.363281 59.214844 C 56.503906 58.898438 56.6875 58.472656 56.78125 58.265625 L 56.945312 57.894531 L 57.503906 58.3125 C 59.695312 59.917969 62.625 61.234375 65.289062 61.804688 C 67.027344 62.175781 67.90625 62.261719 69.800781 62.261719 C 72.273438 62.253906 74.167969 61.960938 76.289062 61.25 C 77.734375 60.769531 79.707031 59.863281 80.632812 59.253906 C 81.402344 58.742188 81.402344 58.742188 80.875 59.726562 C 78.425781 64.292969 75.117188 68.105469 70.828125 71.289062 C 69.734375 72.101562 70.175781 71.605469 65.996094 76.726562 C 63.128906 80.234375 57.054688 87.695312 54.769531 90.507812 L 53.023438 92.65625 L 52.984375 86.078125 L 52.945312 79.507812 L 52.71875 79.058594 C 52.59375 78.8125 52.371094 78.511719 52.207031 78.386719 C 51.640625 77.9375 51.460938 77.898438 49.566406 77.839844 C 48.601562 77.808594 47.34375 77.722656 46.769531 77.660156 C 36.933594 76.507812 28.152344 71.296875 22.476562 63.234375 C 21.410156 61.726562 20.089844 59.445312 19.460938 58.03125 C 19.234375 57.523438 19.234375 57.523438 20.082031 58.171875 Z M 20.082031 58.171875 "/>
<path style=" stroke:none;fill-rule:nonzero;fill:rgb(0%,0%,0%);fill-opacity:1;" d="M 31.890625 31.894531 C 31.425781 31.941406 30.585938 32.089844 30.515625 32.128906 C 30.476562 32.152344 30.703125 32.4375 31.011719 32.769531 C 31.984375 33.796875 32.410156 34.910156 32.402344 36.378906 C 32.402344 37.058594 32.363281 37.285156 32.164062 37.886719 C 31.121094 40.980469 27.671875 42.378906 24.773438 40.886719 C 24.457031 40.714844 23.988281 40.40625 23.75 40.199219 C 23.4375 39.914062 23.296875 39.835938 23.253906 39.90625 C 23.222656 39.957031 23.199219 40.632812 23.199219 41.398438 C 23.207031 42.695312 23.222656 42.851562 23.445312 43.699219 C 24.144531 46.367188 25.894531 48.5625 28.253906 49.769531 C 29.855469 50.582031 30.875 50.828125 32.667969 50.828125 C 33.585938 50.828125 34.082031 50.789062 34.570312 50.679688 C 36.4375 50.277344 37.957031 49.445312 39.355469 48.050781 C 41.199219 46.210938 42.128906 43.964844 42.121094 41.398438 C 42.113281 36.234375 38.183594 32.121094 33.054688 31.902344 C 32.582031 31.878906 32.0625 31.878906 31.890625 31.894531 Z M 31.890625 31.894531 "/>
<path style=" stroke:none;fill-rule:nonzero;fill:rgb(0%,0%,0%);fill-opacity:1;" d="M 69.140625 31.894531 C 68.699219 31.941406 67.789062 32.097656 67.726562 32.136719 C 67.691406 32.152344 67.882812 32.382812 68.15625 32.652344 C 68.964844 33.464844 69.429688 34.429688 69.617188 35.660156 C 69.78125 36.742188 69.492188 38.011719 68.863281 39 C 67.835938 40.632812 66.328125 41.449219 64.363281 41.457031 C 63.113281 41.464844 61.949219 41.035156 60.96875 40.191406 L 60.527344 39.804688 L 60.464844 40.097656 C 60.433594 40.261719 60.410156 40.863281 60.417969 41.433594 C 60.425781 42.585938 60.582031 43.515625 60.945312 44.527344 C 62.53125 48.902344 67.066406 51.476562 71.660156 50.597656 C 75.203125 49.921875 78.109375 47.234375 79.046875 43.753906 C 79.675781 41.40625 79.335938 38.785156 78.117188 36.640625 C 77.003906 34.6875 75.101562 33.117188 72.949219 32.375 C 71.929688 32.027344 70.082031 31.796875 69.140625 31.894531 Z M 69.140625 31.894531 "/>
</g>
</svg>
